<svg width="20" height="20" viewBox="0 0 20 20" fill="none" xmlns="http://www.w3.org/2000/svg">
<path d="M19.4493 5.55084L17.6485 7.35162C17.4649 7.53521 17.168 7.53521 16.9844 7.35162L12.6485 3.01568C12.4649 2.83209 12.4649 2.53522 12.6485 2.35162L14.4493 0.550842C15.1797 -0.179626 16.3672 -0.179626 17.1016 0.550842L19.4493 2.8985C20.1836 3.62897 20.1836 4.81646 19.4493 5.55084ZM11.1016 3.8985L0.843801 14.1563L0.015676 18.9024C-0.0976053 19.543 0.460989 20.0977 1.10161 19.9883L5.84771 19.1563L16.1055 8.89849C16.2891 8.7149 16.2891 8.41803 16.1055 8.23443L11.7696 3.8985C11.5821 3.7149 11.2852 3.7149 11.1016 3.8985ZM4.84771 13.2774C4.63286 13.0626 4.63286 12.7188 4.84771 12.504L10.8633 6.48834C11.0782 6.2735 11.4219 6.2735 11.6368 6.48834C11.8516 6.70318 11.8516 7.04693 11.6368 7.26178L5.62114 13.2774C5.4063 13.4922 5.06255 13.4922 4.84771 13.2774ZM3.43755 16.5626H5.31255V17.9805L2.79302 18.4219L1.57818 17.2071L2.01958 14.6876H3.43755V16.5626Z" fill="black" fill-opacity="0.5413"/>
</svg>
